<?xml version="1.0" encoding="UTF-8"?>
<svg id="Layer_2" data-name="Layer 2" xmlns="http://www.w3.org/2000/svg" viewBox="0 0 468.36 343.64">
  <defs>
    <style>
      .cls-1 {
        isolation: isolate;
      }

      .cls-2 {
        fill: #fff;
      }

      .cls-3 {
        fill: #0075bb;
      }
    </style>
  </defs>
  <g id="Layer_1-2" data-name="Layer 1">
    <g>
      <g class="cls-1">
        <g class="cls-1">
          <path class="cls-3" d="M74.35,86.08h-28.95V24.26h28.42c10.04,0,18.84,8.36,18.84,17.88,0,3.53-.92,6.69-2.81,9.6,3.63,3.72,5.68,8.77,5.68,14.09,0,10.97-9.71,20.24-21.19,20.24ZM49.11,82.37h25.24c9.48,0,17.49-7.57,17.49-16.53,0-4.75-2.1-9.4-5.63-12.45l-1.33-1.15,1.08-1.39c2.05-2.65,3.01-5.42,3.01-8.71,0-7.55-7.07-14.18-15.13-14.18h-24.72v54.4ZM70.43,75.45h-9.52v-19.21h9.52c5.3,0,9.61,4.31,9.61,9.61s-4.31,9.61-9.61,9.61ZM64.62,71.74h5.81c3.25,0,5.9-2.65,5.9-5.9s-2.65-5.9-5.9-5.9h-5.81v11.8ZM69.99,49.31h-9.08v-14.34h9.08c3.95,0,7.17,3.22,7.17,7.17s-3.28,7.17-7.17,7.17ZM64.62,45.61h5.38c1.84,0,3.46-1.62,3.46-3.46s-1.55-3.46-3.46-3.46h-5.38v6.92Z"/>
          <path class="cls-3" d="M142.06,86.08h-38.55V24.26h38.55v14.42h-19.34v6.92h19.34v14.34h-19.34v11.8h19.34v14.34ZM107.22,82.37h31.14v-6.92h-19.34v-19.21h19.34v-6.92h-19.34v-14.34h19.34v-7.01h-31.14v54.4Z"/>
          <path class="cls-3" d="M200.17,86.08h-19.21v-26.14h-9.8v26.14h-19.21V24.26h19.21v21.34h9.8v-21.34h19.21v61.81ZM184.66,82.37h11.8V27.97h-11.8v21.34h-17.21v-21.34h-11.8v54.4h11.8v-26.14h17.21v26.14Z"/>
          <path class="cls-3" d="M248.6,86.08h-38.55v-13.38h9.67v-35.06h-9.67v-13.38h38.55v13.38h-9.67v35.06h9.67v13.38ZM213.76,82.37h31.14v-5.96h-9.67v-42.47h9.67v-5.96h-31.14v5.96h9.67v42.47h-9.67v5.96Z"/>
          <path class="cls-3" d="M306.71,86.08h-12.99l-18.02-24.88v24.88h-17.21V24.26h12.9l18.02,24.88v-24.88h17.3v61.81ZM295.61,82.37h7.39V27.97h-9.88v32.61l-23.62-32.61h-7.31v54.4h9.8v-32.61l23.62,32.61Z"/>
          <path class="cls-3" d="M337.78,86.08h-21.19V24.26h21.19c15.43,0,27.99,13.88,27.99,30.95s-12.56,30.86-27.99,30.86ZM320.3,82.37h17.49c13.39,0,24.28-12.18,24.28-27.16s-10.89-27.24-24.28-27.24h-17.49v54.4ZM335.95,75.27h-3.86v-40.3h3.86c7.49,0,13.35,8.89,13.35,20.24s-5.87,20.06-13.35,20.06ZM335.8,71.57h.15c5.23,0,9.65-7.49,9.65-16.35s-4.42-16.53-9.65-16.53h-.15v32.88Z"/>
        </g>
      </g>
      <rect class="cls-3" x="0" y="82.31" width="468.36" height="49.69" rx="5.02" ry="5.02"/>
      <rect class="cls-3" x="25.32" y="139.27" width="417.7" height="181.7"/>
      <g class="cls-1">
        <g class="cls-1">
          <path class="cls-2" d="M77.44,178.73v47.39h-15.51v-47.39h-15.51v-10.72h46.43v10.72h-15.42Z"/>
          <path class="cls-2" d="M129.71,189.36v-21.34h15.51v58.11h-15.51v-26.13h-13.5v26.13h-15.51v-58.11h15.51v21.34h13.5Z"/>
          <path class="cls-2" d="M158.8,168.02h34.85v10.72h-19.34v10.63h19.34v10.63h-19.34v15.51h19.34v10.63h-34.85v-58.11Z"/>
        </g>
        <g class="cls-1">
          <path class="cls-2" d="M73.69,295.66c-13.42,0-22.39-13.33-22.39-29.97s8.97-30.06,22.39-30.06c9.41,0,15.59,6.1,19.08,13.07l-6.71,6.71c-2.27-3.14-6.36-6.53-9.84-6.53-6.19,0-9.58,7.75-9.58,16.81s3.4,16.81,9.58,16.81c3.48,0,6.19-2.7,9.06-6.71l7.49,6.71c-3.75,7.93-9.67,13.16-19.08,13.16Z"/>
          <path class="cls-2" d="M122.91,235.64c13.94,0,23.26,13.59,23.26,30.06s-9.32,29.97-23.26,29.97-23.17-13.5-23.17-29.97,9.23-30.06,23.17-30.06ZM122.91,283.9c4.18,0,7.67-8.19,7.67-18.21s-3.48-18.21-7.67-18.21-7.58,8.1-7.58,18.21,3.48,18.21,7.58,18.21Z"/>
          <path class="cls-2" d="M181.02,295.66c-12.11,0-22.21-8.8-22.21-25.18v-33.89h15.51v37.2c0,6.27,2.79,9.67,6.71,9.67s6.8-3.4,6.8-9.67v-37.2h15.51v33.89c0,16.38-10.19,25.18-22.3,25.18Z"/>
          <path class="cls-2" d="M247.83,236.6h13.59v58.11h-10.19l-20.82-28.75v28.75h-13.5v-58.11h10.11l20.82,28.75v-28.75Z"/>
          <path class="cls-2" d="M300.19,247.31v47.39h-15.51v-47.39h-15.51v-10.72h46.43v10.72h-15.42Z"/>
          <path class="cls-2" d="M323.45,236.6h34.85v10.72h-19.34v10.63h19.34v10.63h-19.34v15.51h19.34v10.63h-34.85v-58.11Z"/>
          <path class="cls-2" d="M423.63,294.7h-17.6l-13.94-19.34h-4.7v19.34h-15.51v-58.11h22.21c12.81,0,23.26,8.71,23.26,19.43,0,6.53-4.01,12.37-10.11,15.94l16.38,22.74ZM401.85,256.02c0-5.4-4.36-9.76-9.67-9.76h-4.79v19.43h4.79c5.31,0,9.67-4.36,9.67-9.67Z"/>
        </g>
      </g>
      <path class="cls-2" d="M418.07,224.68h-9.27v-28.67c0-10.32-9.18-18.72-20.46-18.72h-181.62v-9.27h181.62c16.39,0,29.73,12.56,29.73,27.99v28.67Z"/>
      <path class="cls-2" d="M408.73,224.66h9.36v5.52s-3-4.3-9.36-5.52Z"/>
      <rect class="cls-3" x="373.54" y="38.27" width="70.9" height="38.85" rx="3.93" ry="3.93"/>
      <rect class="cls-3" x="380.6" y="77.11" width="56.77" height="5.21"/>
      <rect class="cls-2" x="380.6" y="45.87" width="13.36" height="5.95" rx=".6" ry=".6"/>
      <path class="cls-3" d="M387.27,35.07h-3.71V14.27c0-7.87,7.45-14.27,16.61-14.27h40.5v3.71h-40.5c-7.11,0-12.9,4.74-12.9,10.56v20.8Z"/>
      <path class="cls-3" d="M432.44,35.07h-3.71V14.27c0-7.71,5.21-13.97,11.86-14.25l.16,3.7c-4.66.2-8.31,4.83-8.31,10.55v20.8Z"/>
      <path class="cls-3" d="M440.56,21.87v-3.71c3.99,0,7.23-3.24,7.23-7.23s-3.24-7.23-7.23-7.23V0c6.03,0,10.94,4.91,10.94,10.94s-4.91,10.94-10.94,10.94Z"/>
      <rect class="cls-3" x="436.2" y="18.16" width="4.36" height="3.71"/>
      <rect class="cls-3" x="391.51" y="12.4" width="33.01" height="3.71"/>
      <rect class="cls-3" x="419.54" y="21.82" width="4.99" height="3.71"/>
      <rect class="cls-3" x="406.03" y="21.82" width="11.07" height="3.71"/>
      <rect class="cls-3" x="391.51" y="21.82" width="12.07" height="3.71"/>
      <rect class="cls-3" x="402.71" y="31.23" width="21.82" height="3.71"/>
      <rect class="cls-3" x="391.51" y="31.23" width="8.47" height="3.71"/>
      <rect class="cls-3" x="41.41" y="327.38" width="385.55" height="16.26"/>
    </g>
  </g>
</svg>